<?xml version="1.0"?>
<svg width="240" height="240" xmlns="http://www.w3.org/2000/svg" xmlns:svg="http://www.w3.org/2000/svg">
 <!-- Created with SVG-edit - https://github.com/SVG-Edit/svgedit-->
 <defs>
  <symbol height="800px" id="svg_1" viewBox="0 0 512 512" width="800px" xmlns="http://www.w3.org/2000/svg">
   <title>ionicons-v5-j</title>
   <path d="m381.55,32.05c-18.13,4.28 -126.57,31.07 -156,38.19a2,2 0 0 0 -1.55,1.94l0,281.12a2,2 0 0 1 -1.32,1.88l-40.68,14.7c-29.82,10.66 -54,18.94 -54,59.06c0,32.47 23.53,47.18 37.95,50a81.77,81.77 0 0 0 15,1.08c8.89,0 31,-3.59 47.52,-14.24c27.53,-17.78 27.53,-17.78 27.53,-49.85l0,-246.77a2,2 0 0 1 1.49,-1.94l125,-33a2,2 0 0 0 1.49,-1.94l0,-98.28a2,2 0 0 0 -2.43,-1.95z" id="svg_5"/>
  </symbol>
  <symbol height="800px" id="svg_3" viewBox="0 0 16 16" width="800px" xmlns="http://www.w3.org/2000/svg">
   <path d="m7,1l-5,0l0,14l5,0l0,-14z" fill="#000000" id="svg_6"/>
   <path d="m14,1l-5,0l0,14l5,0l0,-14z" fill="#000000" id="svg_7"/>
  </symbol>
 </defs>
 <g class="layer">
  <title>Layer 1</title>
  <use href="#svg_1" id="svg_2" transform="matrix(0.3125, 0, 0, 0.3125, -38, -6)"/>
  <use href="#svg_3" id="svg_4" transform="matrix(0.111065, 0, 0, 0.111065, 134.574, 137.021)"/>
 </g>
</svg>